<svg xmlns="http://www.w3.org/2000/svg" width="512" height="512" viewBox="0 0 64 64"><defs><clipPath id="t"><rect width="64" height="32.5"/></clipPath><clipPath id="b"><rect y="32.5" width="64" height="32"/></clipPath></defs><rect width="64" height="64" rx="0" fill="#0A192F"/><path d="M32.14 47C39.3 47 43.66 43.55 43.66 37.95C43.66 33.58 40.91 31.02 34.71 29.72L31.92 29.11C28.35 28.33 26.91 27.34 26.91 25.54C26.91 23.42 29 21.93 31.96 21.93C35.08 21.93 37.13 23.63 37.34 26.38H42.96C42.79 20.53 38.63 17 31.94 17C25.33 17 20.9 20.55 20.9 25.84C20.9 29.99 23.69 32.66 29.44 33.91L32.51 34.57C36.19 35.37 37.72 36.47 37.72 38.34C37.72 40.6 35.51 42.07 32.18 42.07C28.45 42.07 26.21 40.19 26.13 36.99H20.34C20.34 43.31 24.69 47 32.14 47Z" fill="#FFFFFF" clip-path="url(#t)"/><path d="M32.14 47C39.3 47 43.66 43.55 43.66 37.95C43.66 33.58 40.91 31.02 34.71 29.72L31.92 29.11C28.35 28.33 26.91 27.34 26.91 25.54C26.91 23.42 29 21.93 31.96 21.93C35.08 21.93 37.13 23.63 37.34 26.38H42.96C42.79 20.53 38.63 17 31.94 17C25.33 17 20.9 20.55 20.9 25.84C20.9 29.99 23.69 32.66 29.44 33.91L32.51 34.57C36.19 35.37 37.72 36.47 37.72 38.34C37.72 40.6 35.51 42.07 32.18 42.07C28.45 42.07 26.21 40.19 26.13 36.99H20.34C20.34 43.31 24.69 47 32.14 47Z" fill="#2BC48A" clip-path="url(#b)"/></svg>